<svg version="1.2" xmlns="http://www.w3.org/2000/svg" viewBox="0 0 459 489" width="459" height="489"><style>.a{fill:#4bbdc2}</style><path class="a" d="m199.3 72.2c-39.7 39.8-72.7 73.5-73.2 75-0.5 1.4-0.7 3.7-0.3 5.1 0.4 1.4 9.9 11.9 21.2 23.5l20.5 21 8.5 0.7c4.7 0.4 30.4 0.5 57.2 0.3l48.8-0.3 46.1-46c25.3-25.3 46.7-47.3 47.5-48.8 3.2-6.1 3.2-6.2-46.7-56l-46.8-46.7h-5.3-5.3z"/><path class="a" d="m58.6 149.2c-7.1 1.9-11.5 7.6-18.8 24.3-3.7 8.2-12.5 28.3-19.7 44.6-9.9 22.4-13.1 30.7-13.1 33.8v4.1h224.5 224.5v-4.1c0-3.1-4.7-14.6-20.1-49.2-11-24.9-21-46.3-22.2-47.5-1.2-1.3-4-3.4-6.2-4.5-3.8-2.1-5.3-2.2-30.7-2.2h-26.8l-24 24-24 24 5.7 0.6c3.2 0.3 11 0.4 17.3 0.2 13.5-0.4 16.9 0 19.8 2.8 4.2 3.8 1.8 10.6-4.5 13-2.7 1-212 1.3-217.2 0.3-3.9-0.8-8.1-4.9-8.1-8 0-1.2 1.1-3.6 2.4-5.1l2.4-2.8h15.1c8.3 0 15.1-0.2 15.1-0.4 0-0.3-8.5-9.1-18.9-19.6-18.8-18.9-19-19.1-19.7-24.3l-0.7-5.2-24.1 0.1c-13.2 0.1-25.8 0.6-28 1.1z"/><path class="a" d="m7 278.6c0 11.2 1.5 15.9 6.9 21.5 3.4 3.5 5.8 5.1 9.3 5.9l4.8 1.2 0.2 80.2c0.3 77.5 0.4 80.2 2.3 84.1 2.9 6 9.4 11.9 15 13.8 4.5 1.6 19.9 1.7 186.4 1.6 136.4 0 182.4-0.3 184.8-1.2 6-2.2 11.7-7.2 14.8-12.8l3-5.4 0.3-80.1 0.2-80 5.5-1.8c4-1.2 6.4-2.8 9.3-6.1 4.8-5.5 6.2-10 6.2-20.4v-8.1h-224.5-224.5z"/></svg>